NotoSansTaiViet-Regular.ufo
<glyph name="uniA78C" format="2">
  <advance width="326"/>
  <unicode hex="A78C"/>
  <note>
uniA78C
</note>
  <outline>
    <contour>
      <point x="140" y="471" type="line"/>
      <point x="201" y="471" type="line"/>
      <point x="226" y="729" type="line"/>
      <point x="115" y="729" type="line"/>
    </contour>
  </outline>
</glyph>
<glyph name="uniAA80" format="2">
  <advance width="646"/>
  <unicode hex="AA80"/>
  <outline>
    <contour>
      <point x="501" y="-5" type="curve"/>
      <point x="587" y="24" type="line"/>
      <point x="572" y="57"/>
      <point x="567" y="96"/>
      <point x="567" y="139" type="curve" smooth="yes"/>
      <point x="567" y="204"/>
      <point x="573" y="276"/>
      <point x="573" y="341" type="curve" smooth="yes"/>
      <point x="573" y="452"/>
      <point x="545" y="546"/>
      <point x="449" y="546" type="curve" smooth="yes"/>
      <point x="355" y="546"/>
      <point x="258" y="427"/>
      <point x="213" y="320" type="curve"/>
      <point x="203" y="429"/>
      <point x="166" y="504"/>
      <point x="91" y="546" type="curve"/>
      <point x="59" y="502" type="line"/>
      <point x="122" y="466"/>
      <point x="127" y="380"/>
      <point x="127" y="298" type="curve" smooth="yes"/>
      <point x="127" y="207"/>
      <point x="112" y="80"/>
      <point x="81" y="-2" type="curve"/>
      <point x="175" y="24" type="line"/>
      <point x="188" y="63"/>
      <point x="198" y="102"/>
      <point x="205" y="143" type="curve"/>
      <point x="268" y="350"/>
      <point x="373" y="478"/>
      <point x="437" y="478" type="curve" smooth="yes"/>
      <point x="476" y="478"/>
      <point x="485" y="412"/>
      <point x="485" y="335" type="curve" smooth="yes"/>
      <point x="485" y="250"/>
      <point x="479" y="181"/>
      <point x="479" y="124" type="curve" smooth="yes"/>
      <point x="479" y="75"/>
      <point x="483" y="33"/>
    </contour>
  </outline>
</glyph>
<glyph name="uniAA81" format="2">
  <advance width="715"/>
  <unicode hex="AA81"/>
  <outline>
    <contour>
      <point x="475" y="-4" type="curve"/>
      <point x="561" y="24" type="line"/>
      <point x="545" y="57"/>
      <point x="541" y="96"/>
      <point x="541" y="139" type="curve" smooth="yes"/>
      <point x="541" y="204"/>
      <point x="547" y="276"/>
      <point x="547" y="341" type="curve" smooth="yes"/>
      <point x="547" y="370"/>
      <point x="545" y="398"/>
      <point x="539" y="423" type="curve"/>
      <point x="604" y="466"/>
      <point x="663" y="499"/>
      <point x="706" y="515" type="curve"/>
      <point x="692" y="555" type="line"/>
      <point x="642" y="537"/>
      <point x="584" y="509"/>
      <point x="523" y="473" type="curve"/>
      <point x="501" y="517"/>
      <point x="461" y="546"/>
      <point x="392" y="546" type="curve" smooth="yes"/>
      <point x="174" y="546"/>
      <point x="86" y="280"/>
      <point x="49" y="-2" type="curve"/>
      <point x="140" y="24" type="line"/>
      <point x="208" y="147"/>
      <point x="335" y="271"/>
      <point x="459" y="365" type="curve"/>
      <point x="459" y="335" type="line" smooth="yes"/>
      <point x="459" y="250"/>
      <point x="453" y="181"/>
      <point x="453" y="124" type="curve" smooth="yes"/>
      <point x="453" y="75"/>
      <point x="457" y="34"/>
    </contour>
    <contour>
      <point x="157" y="162" type="curve"/>
      <point x="186" y="318"/>
      <point x="250" y="478"/>
      <point x="384" y="478" type="curve" smooth="yes"/>
      <point x="423" y="478"/>
      <point x="442" y="458"/>
      <point x="451" y="427" type="curve"/>
      <point x="348" y="357"/>
      <point x="242" y="267"/>
    </contour>
  </outline>
</glyph>
<glyph name="uniAA86" format="2">
  <advance width="557"/>
  <unicode hex="AA86"/>
  <outline>
    <contour>
      <point x="38" y="-293" type="line"/>
      <point x="312" y="-186"/>
      <point x="508" y="29"/>
      <point x="508" y="261" type="curve" smooth="yes"/>
      <point x="508" y="443"/>
      <point x="409" y="546"/>
      <point x="254" y="546" type="curve" smooth="yes"/>
      <point x="123" y="546"/>
      <point x="49" y="458"/>
      <point x="49" y="363" type="curve" smooth="yes"/>
      <point x="49" y="269"/>
      <point x="125" y="205"/>
      <point x="214" y="205" type="curve" smooth="yes"/>
      <point x="228" y="205"/>
      <point x="240" y="206"/>
      <point x="251" y="208" type="curve"/>
      <point x="237" y="261" type="line"/>
      <point x="231" y="259"/>
      <point x="225" y="259"/>
      <point x="217" y="259" type="curve" smooth="yes"/>
      <point x="156" y="259"/>
      <point x="137" y="309"/>
      <point x="137" y="364" type="curve" smooth="yes"/>
      <point x="137" y="434"/>
      <point x="183" y="478"/>
      <point x="258" y="478" type="curve" smooth="yes"/>
      <point x="385" y="478"/>
      <point x="420" y="364"/>
      <point x="420" y="264" type="curve" smooth="yes"/>
      <point x="420" y="77"/>
      <point x="325" y="-125"/>
      <point x="15" y="-255" type="curve"/>
    </contour>
  </outline>
</glyph>
<glyph name="uniAA89" format="2">
  <advance width="576"/>
  <unicode hex="AA89"/>
  <outline>
    <contour>
      <point x="292" y="-10" type="curve" smooth="yes"/>
      <point x="423" y="-10"/>
      <point x="518" y="87"/>
      <point x="518" y="224" type="curve" smooth="yes"/>
      <point x="518" y="318"/>
      <point x="458" y="417"/>
      <point x="349" y="417" type="curve" smooth="yes"/>
      <point x="278" y="417"/>
      <point x="233" y="369"/>
      <point x="220" y="326" type="curve"/>
      <point x="270" y="304" type="line"/>
      <point x="278" y="336"/>
      <point x="299" y="363"/>
      <point x="342" y="363" type="curve" smooth="yes"/>
      <point x="415" y="363"/>
      <point x="430" y="278"/>
      <point x="430" y="225" type="curve" smooth="yes"/>
      <point x="430" y="125"/>
      <point x="380" y="59"/>
      <point x="292" y="59" type="curve" smooth="yes"/>
      <point x="186" y="59"/>
      <point x="146" y="136"/>
      <point x="146" y="242" type="curve" smooth="yes"/>
      <point x="146" y="423"/>
      <point x="209" y="510"/>
      <point x="357" y="651" type="curve"/>
      <point x="330" y="676" type="line"/>
      <point x="126" y="504"/>
      <point x="59" y="365"/>
      <point x="59" y="242" type="curve" smooth="yes"/>
      <point x="59" y="105"/>
      <point x="137" y="-10"/>
    </contour>
  </outline>
</glyph>
<glyph name="uniAA8B" format="2">
  <advance width="658"/>
  <unicode hex="AA8B"/>
  <outline>
    <contour>
      <point x="791" y="-293" type="curve"/>
      <point x="814" y="-255" type="line"/>
      <point x="579" y="-159"/>
      <point x="480" y="0"/>
      <point x="480" y="149" type="curve" smooth="yes"/>
      <point x="480" y="252"/>
      <point x="491" y="355"/>
      <point x="611" y="506" type="curve"/>
      <point x="580" y="533" type="line"/>
      <point x="559" y="512"/>
      <point x="539" y="490"/>
      <point x="521" y="467" type="curve"/>
      <point x="480" y="504"/>
      <point x="430" y="546"/>
      <point x="337" y="546" type="curve" smooth="yes"/>
      <point x="178" y="546"/>
      <point x="49" y="328"/>
      <point x="49" y="175" type="curve" smooth="yes"/>
      <point x="49" y="69"/>
      <point x="103" y="12"/>
      <point x="190" y="12" type="curve" smooth="yes"/>
      <point x="261" y="12"/>
      <point x="306" y="67"/>
      <point x="321" y="98" type="curve"/>
      <point x="289" y="118" type="line"/>
      <point x="271" y="95"/>
      <point x="244" y="66"/>
      <point x="207" y="66" type="curve" smooth="yes"/>
      <point x="146" y="66"/>
      <point x="137" y="118"/>
      <point x="137" y="176" type="curve" smooth="yes"/>
      <point x="137" y="301"/>
      <point x="226" y="478"/>
      <point x="326" y="478" type="curve" smooth="yes"/>
      <point x="413" y="478"/>
      <point x="448" y="440"/>
      <point x="473" y="399" type="curve"/>
      <point x="419" y="309"/>
      <point x="392" y="219"/>
      <point x="392" y="146" type="curve" smooth="yes"/>
      <point x="392" y="-35"/>
      <point x="520" y="-189"/>
    </contour>
  </outline>
</glyph>
<glyph name="uniAA8D" format="2">
  <advance width="674"/>
  <unicode hex="AA8D"/>
  <outline>
    <contour>
      <point x="533" y="-186" type="curve" smooth="yes"/>
      <point x="641" y="-186"/>
      <point x="690" y="-124"/>
      <point x="690" y="-51" type="curve" smooth="yes"/>
      <point x="690" y="13"/>
      <point x="643" y="82"/>
      <point x="513" y="82" type="curve" smooth="yes"/>
      <point x="504" y="82"/>
      <point x="500" y="82"/>
      <point x="493" y="81" type="curve"/>
      <point x="478" y="129"/>
      <point x="477" y="230"/>
      <point x="477" y="292" type="curve" smooth="yes"/>
      <point x="477" y="356"/>
      <point x="485" y="481"/>
      <point x="516" y="531" type="curve"/>
      <point x="506" y="584" type="line"/>
      <point x="486" y="579"/>
      <point x="480" y="577"/>
      <point x="463" y="577" type="curve" smooth="yes"/>
      <point x="416" y="577"/>
      <point x="376" y="608"/>
      <point x="376" y="694" type="curve" smooth="yes"/>
      <point x="376" y="840"/>
      <point x="477" y="957"/>
      <point x="732" y="1025" type="curve"/>
      <point x="721" y="1055" type="line"/>
      <point x="520" y="1026"/>
      <point x="287" y="906"/>
      <point x="287" y="688" type="curve" smooth="yes"/>
      <point x="287" y="616"/>
      <point x="322" y="534"/>
      <point x="414" y="514" type="curve"/>
      <point x="398" y="439"/>
      <point x="389" y="357"/>
      <point x="389" y="292" type="curve" smooth="yes"/>
      <point x="389" y="232"/>
      <point x="395" y="133"/>
      <point x="417" y="77" type="curve"/>
      <point x="354" y="68"/>
      <point x="311" y="59"/>
      <point x="244" y="59" type="curve" smooth="yes"/>
      <point x="208" y="59"/>
      <point x="194" y="71"/>
      <point x="194" y="147" type="curve" smooth="yes"/>
      <point x="194" y="243"/>
      <point x="189" y="442"/>
      <point x="140" y="545" type="curve"/>
      <point x="59" y="517" type="line"/>
      <point x="104" y="410"/>
      <point x="106" y="178"/>
      <point x="106" y="137" type="curve" smooth="yes"/>
      <point x="106" y="26"/>
      <point x="150" y="-10"/>
      <point x="226" y="-10" type="curve" smooth="yes"/>
      <point x="346" y="-10"/>
      <point x="389" y="13"/>
      <point x="506" y="13" type="curve" smooth="yes"/>
      <point x="566" y="13"/>
      <point x="617" y="-10"/>
      <point x="617" y="-63" type="curve" smooth="yes"/>
      <point x="617" y="-113"/>
      <point x="566" y="-132"/>
      <point x="524" y="-132" type="curve" smooth="yes"/>
      <point x="492" y="-132"/>
      <point x="458" y="-127"/>
      <point x="422" y="-103" type="curve"/>
      <point x="400" y="-134" type="line"/>
      <point x="431" y="-162"/>
      <point x="481" y="-186"/>
    </contour>
  </outline>
</glyph>
<glyph name="uniAA8E" format="2">
  <advance width="613"/>
  <unicode hex="AA8E"/>
  <outline>
    <contour>
      <point x="530" y="-10" type="curve" smooth="yes"/>
      <point x="536" y="-10"/>
      <point x="542" y="-9"/>
      <point x="549" y="-7" type="curve"/>
      <point x="557" y="44" type="line"/>
      <point x="542" y="44" type="line" smooth="yes"/>
      <point x="442" y="44"/>
      <point x="399" y="179"/>
      <point x="341" y="309" type="curve"/>
      <point x="410" y="391"/>
      <point x="492" y="463"/>
      <point x="574" y="507" type="curve"/>
      <point x="555" y="546" type="line"/>
      <point x="469" y="500"/>
      <point x="386" y="441"/>
      <point x="312" y="371" type="curve"/>
      <point x="266" y="459"/>
      <point x="209" y="534"/>
      <point x="114" y="546" type="curve"/>
      <point x="83" y="471" type="line"/>
      <point x="165" y="455"/>
      <point x="213" y="390"/>
      <point x="253" y="312" type="curve"/>
      <point x="172" y="225"/>
      <point x="105" y="124"/>
      <point x="59" y="14" type="curve"/>
      <point x="153" y="-5" type="line"/>
      <point x="177" y="67"/>
      <point x="225" y="156"/>
      <point x="287" y="241" type="curve"/>
      <point x="342" y="117"/>
      <point x="395" y="-10"/>
    </contour>
  </outline>
</glyph>
<glyph name="uniAA92" format="2">
  <advance width="598"/>
  <unicode hex="AA92"/>
  <outline>
    <contour>
      <point x="194" y="-15" type="curve"/>
      <point x="222" y="28" type="line"/>
      <point x="161" y="62"/>
      <point x="137" y="123"/>
      <point x="137" y="204" type="curve" smooth="yes"/>
      <point x="137" y="344"/>
      <point x="236" y="478"/>
      <point x="355" y="478" type="curve" smooth="yes"/>
      <point x="426" y="478"/>
      <point x="437" y="412"/>
      <point x="437" y="335" type="curve" smooth="yes"/>
      <point x="437" y="250"/>
      <point x="431" y="181"/>
      <point x="431" y="124" type="curve" smooth="yes"/>
      <point x="431" y="75"/>
      <point x="436" y="34"/>
      <point x="453" y="-4" type="curve"/>
      <point x="540" y="24" type="line"/>
      <point x="524" y="57"/>
      <point x="519" y="96"/>
      <point x="519" y="139" type="curve" smooth="yes"/>
      <point x="519" y="204"/>
      <point x="525" y="276"/>
      <point x="525" y="341" type="curve" smooth="yes"/>
      <point x="525" y="452"/>
      <point x="487" y="546"/>
      <point x="363" y="546" type="curve" smooth="yes"/>
      <point x="200" y="546"/>
      <point x="49" y="358"/>
      <point x="49" y="200" type="curve" smooth="yes"/>
      <point x="49" y="96"/>
      <point x="102" y="17"/>
    </contour>
  </outline>
</glyph>
<glyph name="uniAA93" format="2">
  <advance width="902"/>
  <unicode hex="AA93"/>
  <outline>
    <contour>
      <point x="958" y="-293" type="curve"/>
      <point x="980" y="-255" type="line"/>
      <point x="824" y="-174"/>
      <point x="767" y="-113"/>
      <point x="767" y="31" type="curve" smooth="yes"/>
      <point x="767" y="116"/>
      <point x="804" y="278"/>
      <point x="804" y="375" type="curve" smooth="yes"/>
      <point x="804" y="486"/>
      <point x="758" y="546"/>
      <point x="646" y="546" type="curve" smooth="yes"/>
      <point x="500" y="546"/>
      <point x="359" y="387"/>
      <point x="359" y="222" type="curve" smooth="yes"/>
      <point x="359" y="189"/>
      <point x="365" y="157"/>
      <point x="375" y="125" type="curve"/>
      <point x="318" y="98"/>
      <point x="265" y="59"/>
      <point x="226" y="59" type="curve" smooth="yes"/>
      <point x="172" y="59"/>
      <point x="161" y="125"/>
      <point x="161" y="201" type="curve" smooth="yes"/>
      <point x="161" y="287"/>
      <point x="167" y="360"/>
      <point x="167" y="417" type="curve" smooth="yes"/>
      <point x="167" y="466"/>
      <point x="163" y="507"/>
      <point x="145" y="545" type="curve"/>
      <point x="59" y="517" type="line"/>
      <point x="74" y="484"/>
      <point x="79" y="445"/>
      <point x="79" y="402" type="curve" smooth="yes"/>
      <point x="79" y="337"/>
      <point x="73" y="260"/>
      <point x="73" y="195" type="curve" smooth="yes"/>
      <point x="73" y="84"/>
      <point x="109" y="-10"/>
      <point x="209" y="-10" type="curve" smooth="yes"/>
      <point x="286" y="-10"/>
      <point x="328" y="41"/>
      <point x="400" y="71" type="curve"/>
      <point x="432" y="20"/>
      <point x="484" y="-10"/>
      <point x="531" y="-10" type="curve" smooth="yes"/>
      <point x="594" y="-10"/>
      <point x="627" y="28"/>
      <point x="627" y="65" type="curve" smooth="yes"/>
      <point x="627" y="110"/>
      <point x="585" y="149"/>
      <point x="500" y="149" type="curve" smooth="yes"/>
      <point x="484" y="149"/>
      <point x="469" y="147"/>
      <point x="455" y="145" type="curve"/>
      <point x="450" y="165"/>
      <point x="447" y="185"/>
      <point x="447" y="219" type="curve" smooth="yes"/>
      <point x="447" y="358"/>
      <point x="523" y="478"/>
      <point x="638" y="478" type="curve" smooth="yes"/>
      <point x="701" y="478"/>
      <point x="716" y="445"/>
      <point x="716" y="369" type="curve" smooth="yes"/>
      <point x="716" y="258"/>
      <point x="679" y="157"/>
      <point x="679" y="53" type="curve" smooth="yes"/>
      <point x="679" y="-152"/>
      <point x="803" y="-216"/>
    </contour>
    <contour>
      <point x="525" y="44" type="curve" smooth="yes"/>
      <point x="506" y="44"/>
      <point x="487" y="52"/>
      <point x="472" y="92" type="curve"/>
      <point x="484" y="94"/>
      <point x="496" y="95"/>
      <point x="508" y="95" type="curve" smooth="yes"/>
      <point x="538" y="95"/>
      <point x="554" y="86"/>
      <point x="554" y="67" type="curve" smooth="yes"/>
      <point x="554" y="51"/>
      <point x="539" y="44"/>
    </contour>
  </outline>
</glyph>
<glyph name="uniAA96" format="2">
  <advance width="639"/>
  <unicode hex="AA96"/>
  <outline>
    <contour>
      <point x="694" y="-293" type="curve"/>
      <point x="717" y="-255" type="line"/>
      <point x="560" y="-174"/>
      <point x="503" y="-113"/>
      <point x="503" y="31" type="curve" smooth="yes"/>
      <point x="503" y="116"/>
      <point x="541" y="278"/>
      <point x="541" y="375" type="curve" smooth="yes"/>
      <point x="541" y="486"/>
      <point x="479" y="546"/>
      <point x="367" y="546" type="curve" smooth="yes"/>
      <point x="195" y="546"/>
      <point x="49" y="328"/>
      <point x="49" y="175" type="curve" smooth="yes"/>
      <point x="49" y="69"/>
      <point x="103" y="12"/>
      <point x="190" y="12" type="curve" smooth="yes"/>
      <point x="261" y="12"/>
      <point x="306" y="67"/>
      <point x="321" y="98" type="curve"/>
      <point x="289" y="118" type="line"/>
      <point x="271" y="95"/>
      <point x="244" y="66"/>
      <point x="207" y="66" type="curve" smooth="yes"/>
      <point x="146" y="66"/>
      <point x="137" y="118"/>
      <point x="137" y="176" type="curve" smooth="yes"/>
      <point x="137" y="301"/>
      <point x="241" y="478"/>
      <point x="350" y="478" type="curve" smooth="yes"/>
      <point x="408" y="478"/>
      <point x="453" y="455"/>
      <point x="453" y="369" type="curve" smooth="yes"/>
      <point x="453" y="258"/>
      <point x="415" y="157"/>
      <point x="415" y="53" type="curve" smooth="yes"/>
      <point x="415" y="-152"/>
      <point x="540" y="-216"/>
    </contour>
  </outline>
</glyph>
<glyph name="uniAA99" format="2">
  <advance width="687"/>
  <unicode hex="AA99"/>
  <outline>
    <contour>
      <point x="542" y="-20" type="curve" smooth="yes"/>
      <point x="614" y="-20"/>
      <point x="663" y="23"/>
      <point x="663" y="62" type="curve" smooth="yes"/>
      <point x="663" y="107"/>
      <point x="632" y="145"/>
      <point x="550" y="145" type="curve" smooth="yes"/>
      <point x="520" y="145"/>
      <point x="491" y="140"/>
      <point x="464" y="133" type="curve"/>
      <point x="462" y="148"/>
      <point x="461" y="166"/>
      <point x="461" y="185" type="curve" smooth="yes"/>
      <point x="461" y="361"/>
      <point x="522" y="521"/>
      <point x="639" y="646" type="curve"/>
      <point x="615" y="676" type="line"/>
      <point x="458" y="536"/>
      <point x="373" y="342"/>
      <point x="373" y="181" type="curve" smooth="yes"/>
      <point x="373" y="154"/>
      <point x="376" y="128"/>
      <point x="383" y="104" type="curve"/>
      <point x="332" y="82"/>
      <point x="280" y="59"/>
      <point x="229" y="59" type="curve" smooth="yes"/>
      <point x="197" y="59"/>
      <point x="191" y="71"/>
      <point x="191" y="96" type="curve" smooth="yes"/>
      <point x="191" y="116"/>
      <point x="205" y="190"/>
      <point x="205" y="244" type="curve" smooth="yes"/>
      <point x="205" y="340"/>
      <point x="185" y="467"/>
      <point x="140" y="545" type="curve"/>
      <point x="59" y="517" type="line"/>
      <point x="107" y="444"/>
      <point x="117" y="286"/>
      <point x="117" y="245" type="curve" smooth="yes"/>
      <point x="117" y="208"/>
      <point x="104" y="143"/>
      <point x="104" y="105" type="curve" smooth="yes"/>
      <point x="104" y="29"/>
      <point x="151" y="-10"/>
      <point x="218" y="-10" type="curve" smooth="yes"/>
      <point x="267" y="-10"/>
      <point x="352" y="21"/>
      <point x="408" y="50" type="curve"/>
      <point x="435" y="8"/>
      <point x="479" y="-20"/>
    </contour>
    <contour>
      <point x="545" y="34" type="curve" smooth="yes"/>
      <point x="513" y="34"/>
      <point x="491" y="51"/>
      <point x="478" y="81" type="curve"/>
      <point x="499" y="87"/>
      <point x="521" y="91"/>
      <point x="544" y="91" type="curve" smooth="yes"/>
      <point x="581" y="91"/>
      <point x="589" y="74"/>
      <point x="589" y="61" type="curve" smooth="yes"/>
      <point x="589" y="44"/>
      <point x="574" y="34"/>
    </contour>
  </outline>
</glyph>
<glyph name="uniAA9B" format="2">
  <advance width="1180"/>
  <unicode hex="AA9B"/>
  <outline>
    <contour>
      <point x="215" y="-10" type="curve" smooth="yes"/>
      <point x="242" y="-10"/>
      <point x="257" y="14"/>
      <point x="267" y="44" type="curve" smooth="yes"/>
      <point x="274" y="65"/>
      <point x="343" y="367"/>
      <point x="380" y="410" type="curve"/>
      <point x="391" y="314"/>
      <point x="439" y="94"/>
      <point x="476" y="16" type="curve" smooth="yes"/>
      <point x="484" y="-1"/>
      <point x="500" y="-10"/>
      <point x="518" y="-10" type="curve" smooth="yes"/>
      <point x="536" y="-10"/>
      <point x="558" y="-7"/>
      <point x="567" y="22" type="curve" smooth="yes"/>
      <point x="583" y="73"/>
      <point x="659" y="362"/>
      <point x="692" y="410" type="curve"/>
      <point x="705" y="266"/>
      <point x="767" y="67"/>
      <point x="803" y="17" type="curve" smooth="yes"/>
      <point x="819" y="-5"/>
      <point x="831" y="-10"/>
      <point x="854" y="-10" type="curve" smooth="yes"/>
      <point x="889" y="-10"/>
      <point x="900" y="14"/>
      <point x="911" y="44" type="curve" smooth="yes"/>
      <point x="930" y="96"/>
      <point x="991" y="459"/>
      <point x="1180" y="646" type="curve"/>
      <point x="1157" y="676" type="line"/>
      <point x="954" y="508"/>
      <point x="896" y="276"/>
      <point x="854" y="110" type="curve"/>
      <point x="802" y="213"/>
      <point x="769" y="433"/>
      <point x="758" y="498" type="curve" smooth="yes"/>
      <point x="753" y="527"/>
      <point x="741" y="546"/>
      <point x="714" y="546" type="curve" smooth="yes"/>
      <point x="676" y="546"/>
      <point x="575" y="308"/>
      <point x="534" y="106" type="curve"/>
      <point x="508" y="190"/>
      <point x="459" y="420"/>
      <point x="446" y="498" type="curve" smooth="yes"/>
      <point x="441" y="527"/>
      <point x="429" y="546"/>
      <point x="402" y="546" type="curve" smooth="yes"/>
      <point x="366" y="546"/>
      <point x="278" y="347"/>
      <point x="221" y="100" type="curve"/>
      <point x="195" y="149"/>
      <point x="138" y="434"/>
      <point x="128" y="546" type="curve"/>
      <point x="49" y="528" type="line"/>
      <point x="52" y="432"/>
      <point x="112" y="110"/>
      <point x="169" y="17" type="curve" smooth="yes"/>
      <point x="183" y="-6"/>
      <point x="197" y="-10"/>
    </contour>
  </outline>
</glyph>
<glyph name="uniAA9E" format="2">
  <advance width="708"/>
  <unicode hex="AA9E"/>
  <outline>
    <contour>
      <point x="226" y="-10" type="curve" smooth="yes"/>
      <point x="301" y="-10"/>
      <point x="370" y="40"/>
      <point x="439" y="70" type="curve"/>
      <point x="478" y="12"/>
      <point x="522" y="-10"/>
      <point x="564" y="-10" type="curve" smooth="yes"/>
      <point x="627" y="-10"/>
      <point x="661" y="28"/>
      <point x="661" y="65" type="curve" smooth="yes"/>
      <point x="661" y="110"/>
      <point x="623" y="149"/>
      <point x="538" y="149" type="curve" smooth="yes"/>
      <point x="520" y="149"/>
      <point x="502" y="147"/>
      <point x="485" y="144" type="curve"/>
      <point x="478" y="178"/>
      <point x="477" y="243"/>
      <point x="477" y="292" type="curve" smooth="yes"/>
      <point x="477" y="344"/>
      <point x="481" y="411"/>
      <point x="500" y="485" type="curve"/>
      <point x="540" y="443" type="line"/>
      <point x="570" y="469" type="line"/>
      <point x="516" y="536" type="line"/>
      <point x="533" y="586"/>
      <point x="557" y="639"/>
      <point x="592" y="693" type="curve"/>
      <point x="562" y="703"/>
      <point x="530" y="738"/>
      <point x="530" y="793" type="curve" smooth="yes"/>
      <point x="530" y="904"/>
      <point x="611" y="957"/>
      <point x="848" y="1022" type="curve"/>
      <point x="838" y="1055" type="line"/>
      <point x="644" y="1022"/>
      <point x="442" y="935"/>
      <point x="442" y="783" type="curve" smooth="yes"/>
      <point x="442" y="718"/>
      <point x="467" y="680"/>
      <point x="512" y="656" type="curve"/>
      <point x="497" y="633"/>
      <point x="484" y="611"/>
      <point x="473" y="589" type="curve"/>
      <point x="395" y="685" type="line" smooth="yes"/>
      <point x="376" y="709"/>
      <point x="344" y="746"/>
      <point x="317" y="746" type="curve" smooth="yes"/>
      <point x="298" y="746"/>
      <point x="267" y="721"/>
      <point x="245" y="702" type="curve" smooth="yes"/>
      <point x="-11" y="481" type="line"/>
      <point x="12" y="449" type="line"/>
      <point x="68" y="492" type="line"/>
      <point x="104" y="377"/>
      <point x="106" y="175"/>
      <point x="106" y="137" type="curve" smooth="yes"/>
      <point x="106" y="26"/>
      <point x="150" y="-10"/>
    </contour>
    <contour>
      <point x="558" y="44" type="curve" smooth="yes"/>
      <point x="540" y="44"/>
      <point x="521" y="52"/>
      <point x="505" y="92" type="curve"/>
      <point x="517" y="94"/>
      <point x="529" y="95"/>
      <point x="541" y="95" type="curve" smooth="yes"/>
      <point x="571" y="95"/>
      <point x="587" y="86"/>
      <point x="587" y="67" type="curve" smooth="yes"/>
      <point x="587" y="51"/>
      <point x="572" y="44"/>
    </contour>
    <contour>
      <point x="242" y="59" type="curve" smooth="yes"/>
      <point x="208" y="59"/>
      <point x="194" y="70"/>
      <point x="194" y="147" type="curve" smooth="yes"/>
      <point x="194" y="243"/>
      <point x="189" y="442"/>
      <point x="140" y="545" type="curve"/>
      <point x="136" y="544" type="line"/>
      <point x="230" y="615" type="line" smooth="yes"/>
      <point x="271" y="646"/>
      <point x="297" y="656"/>
      <point x="311" y="656" type="curve" smooth="yes"/>
      <point x="334" y="656"/>
      <point x="359" y="633"/>
      <point x="379" y="612" type="curve" smooth="yes"/>
      <point x="448" y="540" type="line"/>
      <point x="405" y="448"/>
      <point x="389" y="369"/>
      <point x="389" y="292" type="curve" smooth="yes"/>
      <point x="389" y="239"/>
      <point x="397" y="168"/>
      <point x="413" y="122" type="curve"/>
      <point x="344" y="96"/>
      <point x="280" y="59"/>
    </contour>
  </outline>
</glyph>
<glyph name="uniAAA1" format="2">
  <advance width="972"/>
  <unicode hex="AAA1"/>
  <outline>
    <contour>
      <point x="215" y="-10" type="curve" smooth="yes"/>
      <point x="242" y="-10"/>
      <point x="257" y="14"/>
      <point x="267" y="44" type="curve" smooth="yes"/>
      <point x="274" y="65"/>
      <point x="343" y="367"/>
      <point x="380" y="410" type="curve"/>
      <point x="387" y="351"/>
      <point x="408" y="245"/>
      <point x="431" y="154" type="curve" smooth="yes"/>
      <point x="451" y="74"/>
      <point x="480" y="-10"/>
      <point x="543" y="-10" type="curve" smooth="yes"/>
      <point x="605" y="-10"/>
      <point x="643" y="17"/>
      <point x="710" y="53" type="curve"/>
      <point x="742" y="9"/>
      <point x="787" y="-10"/>
      <point x="834" y="-10" type="curve" smooth="yes"/>
      <point x="889" y="-10"/>
      <point x="947" y="21"/>
      <point x="947" y="74" type="curve" smooth="yes"/>
      <point x="947" y="112"/>
      <point x="917" y="155"/>
      <point x="836" y="155" type="curve" smooth="yes"/>
      <point x="805" y="155"/>
      <point x="780" y="149"/>
      <point x="757" y="141" type="curve"/>
      <point x="750" y="175"/>
      <point x="747" y="216"/>
      <point x="747" y="265" type="curve" smooth="yes"/>
      <point x="747" y="577"/>
      <point x="930" y="867"/>
      <point x="1160" y="1019" type="curve"/>
      <point x="1136" y="1055" type="line"/>
      <point x="806" y="838"/>
      <point x="659" y="522"/>
      <point x="659" y="247" type="curve" smooth="yes"/>
      <point x="659" y="187"/>
      <point x="668" y="140"/>
      <point x="683" y="103" type="curve"/>
      <point x="647" y="78"/>
      <point x="616" y="60"/>
      <point x="583" y="60" type="curve" smooth="yes"/>
      <point x="549" y="60"/>
      <point x="527" y="116"/>
      <point x="511" y="187" type="curve" smooth="yes"/>
      <point x="488" y="289"/>
      <point x="456" y="438"/>
      <point x="446" y="498" type="curve" smooth="yes"/>
      <point x="441" y="527"/>
      <point x="429" y="546"/>
      <point x="402" y="546" type="curve" smooth="yes"/>
      <point x="366" y="546"/>
      <point x="278" y="347"/>
      <point x="221" y="100" type="curve"/>
      <point x="195" y="149"/>
      <point x="138" y="434"/>
      <point x="128" y="546" type="curve"/>
      <point x="49" y="528" type="line"/>
      <point x="52" y="432"/>
      <point x="112" y="110"/>
      <point x="169" y="17" type="curve" smooth="yes"/>
      <point x="183" y="-6"/>
      <point x="197" y="-10"/>
    </contour>
    <contour>
      <point x="831" y="44" type="curve" smooth="yes"/>
      <point x="806" y="44"/>
      <point x="786" y="60"/>
      <point x="772" y="90" type="curve"/>
      <point x="789" y="97"/>
      <point x="808" y="101"/>
      <point x="830" y="101" type="curve" smooth="yes"/>
      <point x="866" y="101"/>
      <point x="875" y="84"/>
      <point x="875" y="70" type="curve" smooth="yes"/>
      <point x="875" y="59"/>
      <point x="859" y="44"/>
    </contour>
  </outline>
</glyph>
<glyph name="uniAAA2" format="2">
  <advance width="1148"/>
  <unicode hex="AAA2"/>
  <outline>
    <contour>
      <point x="562" y="-20" type="curve" smooth="yes"/>
      <point x="621" y="-20"/>
      <point x="666" y="5"/>
      <point x="694" y="42" type="curve"/>
      <point x="743" y="17"/>
      <point x="779" y="-10"/>
      <point x="832" y="-10" type="curve" smooth="yes"/>
      <point x="921" y="-10"/>
      <point x="970" y="49"/>
      <point x="979" y="177" type="curve" smooth="yes"/>
      <point x="992" y="353"/>
      <point x="1019" y="528"/>
      <point x="1148" y="646" type="curve"/>
      <point x="1125" y="676" type="line"/>
      <point x="937" y="511"/>
      <point x="909" y="308"/>
      <point x="896" y="167" type="curve" smooth="yes"/>
      <point x="889" y="90"/>
      <point x="860" y="59"/>
      <point x="826" y="59" type="curve" smooth="yes"/>
      <point x="791" y="59"/>
      <point x="762" y="79"/>
      <point x="722" y="99" type="curve"/>
      <point x="731" y="145"/>
      <point x="739" y="211"/>
      <point x="739" y="262" type="curve" smooth="yes"/>
      <point x="739" y="413"/>
      <point x="688" y="546"/>
      <point x="562" y="546" type="curve" smooth="yes"/>
      <point x="515" y="546"/>
      <point x="456" y="516"/>
      <point x="419" y="487" type="curve"/>
      <point x="418" y="503"/>
      <point x="417" y="520"/>
      <point x="415" y="536" type="curve"/>
      <point x="325" y="506" type="line"/>
      <point x="331" y="466"/>
      <point x="335" y="414"/>
      <point x="335" y="358" type="curve" smooth="yes"/>
      <point x="335" y="217"/>
      <point x="326" y="59"/>
      <point x="224" y="59" type="curve" smooth="yes"/>
      <point x="172" y="59"/>
      <point x="161" y="125"/>
      <point x="161" y="201" type="curve" smooth="yes"/>
      <point x="161" y="287"/>
      <point x="167" y="360"/>
      <point x="167" y="417" type="curve" smooth="yes"/>
      <point x="167" y="466"/>
      <point x="163" y="507"/>
      <point x="145" y="545" type="curve"/>
      <point x="59" y="517" type="line"/>
      <point x="74" y="484"/>
      <point x="79" y="445"/>
      <point x="79" y="402" type="curve" smooth="yes"/>
      <point x="79" y="337"/>
      <point x="73" y="260"/>
      <point x="73" y="195" type="curve" smooth="yes"/>
      <point x="73" y="84"/>
      <point x="109" y="-10"/>
      <point x="206" y="-10" type="curve" smooth="yes"/>
      <point x="346" y="-10"/>
      <point x="423" y="163"/>
      <point x="423" y="390" type="curve" smooth="yes"/>
      <point x="423" y="407"/>
      <point x="423" y="425"/>
      <point x="422" y="443" type="curve"/>
      <point x="454" y="463"/>
      <point x="504" y="478"/>
      <point x="534" y="478" type="curve" smooth="yes"/>
      <point x="631" y="478"/>
      <point x="651" y="359"/>
      <point x="651" y="259" type="curve" smooth="yes"/>
      <point x="651" y="202"/>
      <point x="650" y="171"/>
      <point x="643" y="132" type="curve"/>
      <point x="617" y="140"/>
      <point x="589" y="145"/>
      <point x="557" y="145" type="curve" smooth="yes"/>
      <point x="475" y="145"/>
      <point x="444" y="104"/>
      <point x="444" y="58" type="curve" smooth="yes"/>
      <point x="444" y="19"/>
      <point x="484" y="-20"/>
    </contour>
    <contour>
      <point x="562" y="34" type="curve" smooth="yes"/>
      <point x="533" y="34"/>
      <point x="518" y="44"/>
      <point x="518" y="61" type="curve" smooth="yes"/>
      <point x="518" y="74"/>
      <point x="526" y="91"/>
      <point x="562" y="91" type="curve" smooth="yes"/>
      <point x="583" y="91"/>
      <point x="604" y="85"/>
      <point x="627" y="76" type="curve"/>
      <point x="613" y="49"/>
      <point x="592" y="34"/>
    </contour>
  </outline>
</glyph>
<glyph name="uniAAAA" format="2">
  <advance width="1234"/>
  <unicode hex="AAAA"/>
  <outline>
    <contour>
      <point x="206" y="-10" type="curve" smooth="yes"/>
      <point x="346" y="-10"/>
      <point x="423" y="163"/>
      <point x="423" y="390" type="curve" smooth="yes"/>
      <point x="423" y="407"/>
      <point x="423" y="425"/>
      <point x="422" y="443" type="curve"/>
      <point x="454" y="463"/>
      <point x="504" y="478"/>
      <point x="534" y="478" type="curve" smooth="yes"/>
      <point x="569" y="478"/>
      <point x="591" y="448"/>
      <point x="591" y="417" type="curve" smooth="yes"/>
      <point x="591" y="299"/>
      <point x="555" y="201"/>
      <point x="555" y="125" type="curve" smooth="yes"/>
      <point x="555" y="45"/>
      <point x="589" y="-10"/>
      <point x="674" y="-10" type="curve" smooth="yes"/>
      <point x="770" y="-10"/>
      <point x="839" y="76"/>
      <point x="875" y="191" type="curve" smooth="yes"/>
      <point x="912" y="310"/>
      <point x="945" y="477"/>
      <point x="1006" y="477" type="curve" smooth="yes"/>
      <point x="1076" y="477"/>
      <point x="1088" y="368"/>
      <point x="1088" y="260" type="curve" smooth="yes"/>
      <point x="1088" y="152"/>
      <point x="1058" y="44"/>
      <point x="998" y="44" type="curve" smooth="yes"/>
      <point x="960" y="44"/>
      <point x="934" y="73"/>
      <point x="916" y="96" type="curve"/>
      <point x="883" y="76" type="line"/>
      <point x="899" y="45"/>
      <point x="944" y="-10"/>
      <point x="1014" y="-10" type="curve" smooth="yes"/>
      <point x="1117" y="-10"/>
      <point x="1176" y="127"/>
      <point x="1176" y="266" type="curve" smooth="yes"/>
      <point x="1176" y="405"/>
      <point x="1135" y="545"/>
      <point x="1024" y="545" type="curve" smooth="yes"/>
      <point x="911" y="545"/>
      <point x="859" y="440"/>
      <point x="818" y="284" type="curve" smooth="yes"/>
      <point x="796" y="200"/>
      <point x="757" y="59"/>
      <point x="690" y="59" type="curve" smooth="yes"/>
      <point x="656" y="59"/>
      <point x="643" y="80"/>
      <point x="643" y="123" type="curve" smooth="yes"/>
      <point x="643" y="199"/>
      <point x="679" y="326"/>
      <point x="679" y="425" type="curve" smooth="yes"/>
      <point x="679" y="475"/>
      <point x="644" y="546"/>
      <point x="562" y="546" type="curve" smooth="yes"/>
      <point x="515" y="546"/>
      <point x="456" y="516"/>
      <point x="419" y="487" type="curve"/>
      <point x="418" y="503"/>
      <point x="417" y="520"/>
      <point x="415" y="536" type="curve"/>
      <point x="325" y="506" type="line"/>
      <point x="331" y="466"/>
      <point x="335" y="414"/>
      <point x="335" y="358" type="curve" smooth="yes"/>
      <point x="335" y="217"/>
      <point x="326" y="59"/>
      <point x="224" y="59" type="curve" smooth="yes"/>
      <point x="172" y="59"/>
      <point x="161" y="125"/>
      <point x="161" y="201" type="curve" smooth="yes"/>
      <point x="161" y="287"/>
      <point x="167" y="360"/>
      <point x="167" y="417" type="curve" smooth="yes"/>
      <point x="167" y="466"/>
      <point x="163" y="507"/>
      <point x="145" y="545" type="curve"/>
      <point x="59" y="517" type="line"/>
      <point x="74" y="484"/>
      <point x="79" y="445"/>
      <point x="79" y="402" type="curve" smooth="yes"/>
      <point x="79" y="337"/>
      <point x="73" y="260"/>
      <point x="73" y="195" type="curve" smooth="yes"/>
      <point x="73" y="84"/>
      <point x="109" y="-10"/>
    </contour>
  </outline>
</glyph>
<glyph name="uniAAAB" format="2">
  <advance width="611"/>
  <unicode hex="AAAB"/>
  <outline>
    <contour>
      <point x="274" y="-10" type="curve" smooth="yes"/>
      <point x="446" y="-10"/>
      <point x="553" y="175"/>
      <point x="553" y="328" type="curve" smooth="yes"/>
      <point x="553" y="434"/>
      <point x="505" y="546"/>
      <point x="345" y="546" type="curve" smooth="yes"/>
      <point x="154" y="546"/>
      <point x="55" y="366"/>
      <point x="39" y="335" type="curve"/>
      <point x="76" y="315" type="line"/>
      <point x="112" y="371"/>
      <point x="202" y="478"/>
      <point x="337" y="478" type="curve" smooth="yes"/>
      <point x="420" y="478"/>
      <point x="465" y="421"/>
      <point x="465" y="326" type="curve" smooth="yes"/>
      <point x="465" y="190"/>
      <point x="400" y="59"/>
      <point x="292" y="59" type="curve" smooth="yes"/>
      <point x="236" y="59"/>
      <point x="190" y="79"/>
      <point x="187" y="156" type="curve"/>
      <point x="102" y="140" type="line"/>
      <point x="109" y="42"/>
      <point x="169" y="-10"/>
    </contour>
  </outline>
</glyph>
<glyph name="uniAAAC" format="2">
  <advance width="802"/>
  <unicode hex="AAAC"/>
  <outline>
    <contour>
      <point x="215" y="-10" type="curve" smooth="yes"/>
      <point x="356" y="-10"/>
      <point x="433" y="163"/>
      <point x="433" y="390" type="curve" smooth="yes"/>
      <point x="433" y="402"/>
      <point x="433" y="414"/>
      <point x="432" y="427" type="curve"/>
      <point x="473" y="461"/>
      <point x="519" y="478"/>
      <point x="566" y="478" type="curve" smooth="yes"/>
      <point x="629" y="478"/>
      <point x="642" y="426"/>
      <point x="642" y="335" type="curve" smooth="yes"/>
      <point x="642" y="250"/>
      <point x="635" y="181"/>
      <point x="635" y="124" type="curve" smooth="yes"/>
      <point x="635" y="75"/>
      <point x="640" y="34"/>
      <point x="657" y="-4" type="curve"/>
      <point x="744" y="24" type="line"/>
      <point x="728" y="57"/>
      <point x="723" y="96"/>
      <point x="723" y="139" type="curve" smooth="yes"/>
      <point x="723" y="204"/>
      <point x="729" y="276"/>
      <point x="729" y="341" type="curve" smooth="yes"/>
      <point x="729" y="452"/>
      <point x="689" y="546"/>
      <point x="593" y="546" type="curve" smooth="yes"/>
      <point x="539" y="546"/>
      <point x="476" y="518"/>
      <point x="429" y="483" type="curve"/>
      <point x="428" y="500"/>
      <point x="426" y="518"/>
      <point x="424" y="536" type="curve"/>
      <point x="335" y="506" type="line"/>
      <point x="341" y="466"/>
      <point x="345" y="414"/>
      <point x="345" y="358" type="curve" smooth="yes"/>
      <point x="345" y="217"/>
      <point x="335" y="59"/>
      <point x="233" y="59" type="curve" smooth="yes"/>
      <point x="182" y="59"/>
      <point x="161" y="125"/>
      <point x="161" y="201" type="curve" smooth="yes"/>
      <point x="161" y="287"/>
      <point x="167" y="360"/>
      <point x="167" y="417" type="curve" smooth="yes"/>
      <point x="167" y="466"/>
      <point x="163" y="507"/>
      <point x="145" y="545" type="curve"/>
      <point x="59" y="517" type="line"/>
      <point x="74" y="484"/>
      <point x="79" y="445"/>
      <point x="79" y="402" type="curve" smooth="yes"/>
      <point x="79" y="337"/>
      <point x="73" y="260"/>
      <point x="73" y="195" type="curve" smooth="yes"/>
      <point x="73" y="84"/>
      <point x="119" y="-10"/>
    </contour>
  </outline>
</glyph>
<glyph name="uniAAAE" format="2">
  <advance width="618"/>
  <unicode hex="AAAE"/>
  <outline>
    <contour>
      <point x="252" y="-10" type="curve" smooth="yes"/>
      <point x="438" y="-10"/>
      <point x="559" y="149"/>
      <point x="559" y="328" type="curve" smooth="yes"/>
      <point x="559" y="344"/>
      <point x="558" y="361"/>
      <point x="555" y="377" type="curve"/>
      <point x="574" y="386"/>
      <point x="591" y="396"/>
      <point x="608" y="406" type="curve"/>
      <point x="594" y="448" type="line"/>
      <point x="577" y="439"/>
      <point x="560" y="431"/>
      <point x="544" y="423" type="curve"/>
      <point x="520" y="492"/>
      <point x="463" y="546"/>
      <point x="351" y="546" type="curve" smooth="yes"/>
      <point x="224" y="546"/>
      <point x="145" y="466"/>
      <point x="145" y="396" type="curve" smooth="yes"/>
      <point x="145" y="345"/>
      <point x="188" y="295"/>
      <point x="282" y="295" type="curve" smooth="yes"/>
      <point x="327" y="295"/>
      <point x="397" y="312"/>
      <point x="471" y="340" type="curve"/>
      <point x="471" y="326" type="line" smooth="yes"/>
      <point x="471" y="195"/>
      <point x="409" y="59"/>
      <point x="259" y="59" type="curve" smooth="yes"/>
      <point x="188" y="59"/>
      <point x="107" y="94"/>
      <point x="107" y="189" type="curve" smooth="yes"/>
      <point x="107" y="208"/>
      <point x="111" y="226"/>
      <point x="118" y="243" type="curve"/>
      <point x="66" y="271" type="line"/>
      <point x="54" y="243"/>
      <point x="49" y="214"/>
      <point x="49" y="187" type="curve" smooth="yes"/>
      <point x="49" y="81"/>
      <point x="123" y="-10"/>
    </contour>
    <contour>
      <point x="299" y="349" type="curve" smooth="yes"/>
      <point x="243" y="349"/>
      <point x="218" y="371"/>
      <point x="218" y="397" type="curve" smooth="yes"/>
      <point x="218" y="434"/>
      <point x="266" y="478"/>
      <point x="344" y="478" type="curve" smooth="yes"/>
      <point x="407" y="478"/>
      <point x="447" y="445"/>
      <point x="463" y="389" type="curve"/>
      <point x="393" y="362"/>
      <point x="335" y="349"/>
    </contour>
  </outline>
</glyph>
<glyph name="uniAAB7" format="2">
  <unicode hex="AAB7"/>
  <outline>
    <contour>
      <point x="-559" y="635" type="line"/>
      <point x="-508" y="675"/>
      <point x="-306" y="792"/>
      <point x="-148" y="863" type="curve"/>
      <point x="-164" y="902" type="line"/>
      <point x="-315" y="848"/>
      <point x="-503" y="760"/>
      <point x="-595" y="691" type="curve"/>
    </contour>
  </outline>
</glyph>
<glyph name="uniAABB" format="2">
  <advance width="520"/>
  <unicode hex="AABB"/>
  <outline>
    <contour>
      <point x="387" y="-10" type="curve"/>
      <point x="417" y="19" type="line"/>
      <point x="361" y="82"/>
      <point x="341" y="163"/>
      <point x="341" y="254" type="curve" smooth="yes"/>
      <point x="341" y="406"/>
      <point x="393" y="588"/>
      <point x="401" y="772" type="curve"/>
      <point x="458" y="792"/>
      <point x="518" y="818"/>
      <point x="568" y="848" type="curve"/>
      <point x="554" y="890" type="line"/>
      <point x="500" y="861"/>
      <point x="449" y="839"/>
      <point x="402" y="823" type="curve"/>
      <point x="401" y="929"/>
      <point x="352" y="1055"/>
      <point x="194" y="1055" type="curve" smooth="yes"/>
      <point x="66" y="1055"/>
      <point x="0" y="966"/>
      <point x="0" y="896" type="curve" smooth="yes"/>
      <point x="0" y="845"/>
      <point x="38" y="736"/>
      <point x="229" y="736" type="curve" smooth="yes"/>
      <point x="251" y="736"/>
      <point x="279" y="740"/>
      <point x="312" y="747" type="curve"/>
      <point x="302" y="602"/>
      <point x="268" y="462"/>
      <point x="268" y="329" type="curve" smooth="yes"/>
      <point x="268" y="211"/>
      <point x="294" y="98"/>
    </contour>
    <contour>
      <point x="229" y="790" type="curve" smooth="yes"/>
      <point x="89" y="790"/>
      <point x="73" y="872"/>
      <point x="73" y="898" type="curve" smooth="yes"/>
      <point x="73" y="935"/>
      <point x="108" y="986"/>
      <point x="187" y="986" type="curve" smooth="yes"/>
      <point x="270" y="986"/>
      <point x="314" y="914"/>
      <point x="314" y="818" type="curve" smooth="yes"/>
      <point x="314" y="799" type="line"/>
      <point x="283" y="793"/>
      <point x="254" y="790"/>
    </contour>
  </outline>
</glyph>
<glyph name="uniAABD" format="2">
  <advance width="753"/>
  <unicode hex="AABD"/>
  <outline>
    <contour>
      <point x="542" y="-20" type="curve" smooth="yes"/>
      <point x="614" y="-20"/>
      <point x="663" y="23"/>
      <point x="663" y="62" type="curve" smooth="yes"/>
      <point x="663" y="107"/>
      <point x="632" y="145"/>
      <point x="550" y="145" type="curve" smooth="yes"/>
      <point x="520" y="145"/>
      <point x="491" y="140"/>
      <point x="464" y="133" type="curve"/>
      <point x="462" y="148"/>
      <point x="461" y="166"/>
      <point x="461" y="185" type="curve" smooth="yes"/>
      <point x="461" y="283"/>
      <point x="480" y="375"/>
      <point x="516" y="460" type="curve"/>
      <point x="563" y="436"/>
      <point x="604" y="414"/>
      <point x="632" y="394" type="curve"/>
      <point x="653" y="425" type="line"/>
      <point x="623" y="449"/>
      <point x="583" y="476"/>
      <point x="538" y="505" type="curve"/>
      <point x="565" y="556"/>
      <point x="599" y="603"/>
      <point x="639" y="646" type="curve"/>
      <point x="615" y="676" type="line"/>
      <point x="567" y="633"/>
      <point x="525" y="585"/>
      <point x="491" y="534" type="curve"/>
      <point x="454" y="556"/>
      <point x="414" y="579"/>
      <point x="374" y="600" type="curve"/>
      <point x="340" y="543" type="line"/>
      <point x="381" y="525"/>
      <point x="422" y="506"/>
      <point x="462" y="487" type="curve"/>
      <point x="403" y="386"/>
      <point x="373" y="277"/>
      <point x="373" y="181" type="curve" smooth="yes"/>
      <point x="373" y="154"/>
      <point x="376" y="128"/>
      <point x="383" y="104" type="curve"/>
      <point x="332" y="82"/>
      <point x="280" y="59"/>
      <point x="229" y="59" type="curve" smooth="yes"/>
      <point x="197" y="59"/>
      <point x="191" y="71"/>
      <point x="191" y="96" type="curve" smooth="yes"/>
      <point x="191" y="116"/>
      <point x="205" y="190"/>
      <point x="205" y="244" type="curve" smooth="yes"/>
      <point x="205" y="340"/>
      <point x="185" y="467"/>
      <point x="140" y="545" type="curve"/>
      <point x="59" y="517" type="line"/>
      <point x="107" y="444"/>
      <point x="117" y="286"/>
      <point x="117" y="245" type="curve" smooth="yes"/>
      <point x="117" y="208"/>
      <point x="104" y="143"/>
      <point x="104" y="105" type="curve" smooth="yes"/>
      <point x="104" y="29"/>
      <point x="151" y="-10"/>
      <point x="218" y="-10" type="curve" smooth="yes"/>
      <point x="267" y="-10"/>
      <point x="352" y="21"/>
      <point x="408" y="50" type="curve"/>
      <point x="435" y="8"/>
      <point x="479" y="-20"/>
    </contour>
    <contour>
      <point x="545" y="34" type="curve" smooth="yes"/>
      <point x="513" y="34"/>
      <point x="491" y="51"/>
      <point x="478" y="81" type="curve"/>
      <point x="499" y="87"/>
      <point x="521" y="91"/>
      <point x="544" y="91" type="curve" smooth="yes"/>
      <point x="581" y="91"/>
      <point x="589" y="74"/>
      <point x="589" y="61" type="curve" smooth="yes"/>
      <point x="589" y="44"/>
      <point x="574" y="34"/>
    </contour>
  </outline>
</glyph>
<glyph name="uniAADB" format="2">
  <advance width="929"/>
  <unicode hex="AADB"/>
  <outline>
    <contour>
      <point x="616" y="-10" type="curve" smooth="yes"/>
      <point x="773" y="-10"/>
      <point x="825" y="177"/>
      <point x="839" y="344" type="curve"/>
      <point x="884" y="348"/>
      <point x="931" y="351"/>
      <point x="981" y="352" type="curve"/>
      <point x="982" y="395" type="line"/>
      <point x="935" y="395"/>
      <point x="889" y="394"/>
      <point x="844" y="392" type="curve"/>
      <point x="866" y="588"/>
      <point x="897" y="694"/>
      <point x="1017" y="810" type="curve"/>
      <point x="994" y="840" type="line"/>
      <point x="849" y="710"/>
      <point x="774" y="560"/>
      <point x="755" y="387" type="curve"/>
      <point x="688" y="382"/>
      <point x="624" y="374"/>
      <point x="560" y="362" type="curve"/>
      <point x="561" y="375"/>
      <point x="562" y="387"/>
      <point x="562" y="397" type="curve" smooth="yes"/>
      <point x="562" y="487"/>
      <point x="530" y="546"/>
      <point x="452" y="546" type="curve" smooth="yes"/>
      <point x="309" y="546"/>
      <point x="202" y="409"/>
      <point x="146" y="221" type="curve"/>
      <point x="88" y="190"/>
      <point x="31" y="155"/>
      <point x="-27" y="114" type="curve"/>
      <point x="-3" y="37" type="line"/>
      <point x="35" y="65"/>
      <point x="76" y="94"/>
      <point x="123" y="123" type="curve"/>
      <point x="115" y="83"/>
      <point x="110" y="41"/>
      <point x="107" y="-2" type="curve"/>
      <point x="203" y="24" type="line"/>
      <point x="208" y="73"/>
      <point x="213" y="127"/>
      <point x="222" y="179" type="curve"/>
      <point x="291" y="215"/>
      <point x="371" y="248"/>
      <point x="464" y="276" type="curve"/>
      <point x="461" y="243"/>
      <point x="458" y="209"/>
      <point x="458" y="179" type="curve" smooth="yes"/>
      <point x="458" y="68"/>
      <point x="520" y="-10"/>
    </contour>
    <contour>
      <point x="240" y="266" type="curve"/>
      <point x="270" y="384"/>
      <point x="323" y="478"/>
      <point x="425" y="478" type="curve" smooth="yes"/>
      <point x="467" y="478"/>
      <point x="474" y="448"/>
      <point x="474" y="417" type="curve" smooth="yes"/>
      <point x="474" y="394"/>
      <point x="472" y="369"/>
      <point x="470" y="343" type="curve"/>
      <point x="392" y="324"/>
      <point x="315" y="299"/>
    </contour>
    <contour>
      <point x="634" y="59" type="curve" smooth="yes"/>
      <point x="582" y="59"/>
      <point x="546" y="109"/>
      <point x="546" y="185" type="curve" smooth="yes"/>
      <point x="546" y="225"/>
      <point x="550" y="264"/>
      <point x="553" y="300" type="curve"/>
      <point x="614" y="314"/>
      <point x="679" y="326"/>
      <point x="750" y="335" type="curve"/>
      <point x="742" y="198"/>
      <point x="727" y="59"/>
    </contour>
  </outline>
</glyph>
<glyph name="uniAADF" format="2">
  <advance width="820"/>
  <unicode hex="AADF"/>
  <outline>
    <contour>
      <point x="562" y="-10" type="curve" smooth="yes"/>
      <point x="634" y="-10"/>
      <point x="676" y="35"/>
      <point x="676" y="80" type="curve" smooth="yes"/>
      <point x="676" y="126"/>
      <point x="635" y="163"/>
      <point x="554" y="163" type="curve" smooth="yes"/>
      <point x="526" y="163"/>
      <point x="501" y="162"/>
      <point x="477" y="159" type="curve"/>
      <point x="470" y="195"/>
      <point x="466" y="238"/>
      <point x="465" y="283" type="curve"/>
      <point x="595" y="309"/>
      <point x="722" y="342"/>
      <point x="722" y="435" type="curve" smooth="yes"/>
      <point x="722" y="499"/>
      <point x="611" y="526"/>
      <point x="483" y="538" type="curve"/>
      <point x="490" y="580"/>
      <point x="498" y="617"/>
      <point x="506" y="648" type="curve"/>
      <point x="479" y="687" type="line"/>
      <point x="450" y="670"/>
      <point x="416" y="668"/>
      <point x="399" y="668" type="curve" smooth="yes"/>
      <point x="352" y="668"/>
      <point x="298" y="688"/>
      <point x="298" y="774" type="curve" smooth="yes"/>
      <point x="298" y="878"/>
      <point x="378" y="957"/>
      <point x="634" y="1025" type="curve"/>
      <point x="623" y="1055" type="line"/>
      <point x="421" y="1026"/>
      <point x="209" y="920"/>
      <point x="209" y="768" type="curve" smooth="yes"/>
      <point x="209" y="685"/>
      <point x="270" y="601"/>
      <point x="395" y="601" type="curve" smooth="yes"/>
      <point x="412" y="601"/>
      <point x="428" y="603"/>
      <point x="441" y="607" type="curve"/>
      <point x="434" y="587"/>
      <point x="426" y="566"/>
      <point x="419" y="542" type="curve"/>
      <point x="371" y="545"/>
      <point x="322" y="546"/>
      <point x="278" y="546" type="curve" smooth="yes"/>
      <point x="232" y="546"/>
      <point x="191" y="545"/>
      <point x="161" y="545" type="curve"/>
      <point x="151" y="476" type="line"/>
      <point x="174" y="477"/>
      <point x="204" y="478"/>
      <point x="237" y="478" type="curve" smooth="yes"/>
      <point x="288" y="478"/>
      <point x="346" y="476"/>
      <point x="402" y="473" type="curve"/>
      <point x="392" y="427"/>
      <point x="383" y="377"/>
      <point x="379" y="329" type="curve"/>
      <point x="241" y="300"/>
      <point x="98" y="261"/>
      <point x="98" y="158" type="curve" smooth="yes"/>
      <point x="98" y="98"/>
      <point x="160" y="61"/>
      <point x="232" y="61" type="curve" smooth="yes"/>
      <point x="294" y="61"/>
      <point x="351" y="77"/>
      <point x="410" y="90" type="curve"/>
      <point x="438" y="30"/>
      <point x="487" y="-10"/>
    </contour>
    <contour>
      <point x="236" y="129" type="curve" smooth="yes"/>
      <point x="202" y="129"/>
      <point x="186" y="143"/>
      <point x="186" y="165" type="curve" smooth="yes"/>
      <point x="186" y="222"/>
      <point x="273" y="245"/>
      <point x="377" y="266" type="curve"/>
      <point x="377" y="264" type="line" smooth="yes"/>
      <point x="377" y="223"/>
      <point x="381" y="183"/>
      <point x="390" y="147" type="curve"/>
      <point x="337" y="138"/>
      <point x="288" y="129"/>
    </contour>
    <contour>
      <point x="565" y="44" type="curve" smooth="yes"/>
      <point x="531" y="44"/>
      <point x="507" y="67"/>
      <point x="492" y="106" type="curve"/>
      <point x="510" y="108"/>
      <point x="528" y="109"/>
      <point x="548" y="109" type="curve" smooth="yes"/>
      <point x="584" y="109"/>
      <point x="603" y="94"/>
      <point x="603" y="81" type="curve" smooth="yes"/>
      <point x="603" y="61"/>
      <point x="594" y="44"/>
    </contour>
    <contour>
      <point x="465" y="346" type="curve"/>
      <point x="466" y="386"/>
      <point x="470" y="428"/>
      <point x="474" y="468" type="curve"/>
      <point x="564" y="459"/>
      <point x="634" y="445"/>
      <point x="634" y="423" type="curve" smooth="yes"/>
      <point x="634" y="383"/>
      <point x="559" y="364"/>
    </contour>
  </outline>
</glyph>
